<svg width="20" height="20" viewBox="0 0 20 20" fill="none" xmlns="http://www.w3.org/2000/svg">
<path d="M11.8475 2.91623C11.2702 2.64218 10.6391 2.5 9.99999 2.5C9.36091 2.5 8.72983 2.64218 8.15249 2.91623L4.57416 4.5929C4.98672 4.63679 5.37308 4.81628 5.67271 5.10325C5.97235 5.39023 6.16834 5.76848 6.22998 6.17877C6.29163 6.58906 6.21546 7.00821 6.01339 7.37057C5.81132 7.73293 5.49477 8.01803 5.11333 8.18123L4.21666 8.5654C3.77166 8.75706 3.51916 8.86706 3.34833 8.95456L3.34583 8.99623L8.15249 11.2496C8.72983 11.5236 9.36091 11.6658 9.99999 11.6658C10.6391 11.6658 11.2702 11.5236 11.8475 11.2496L17.4233 8.6354C18.6367 8.06706 18.6367 6.09873 17.4233 5.5304L11.8475 2.91623Z" fill="#5D7186"/>
<path d="M4.62087 7.03335C4.77337 6.96816 4.89373 6.84505 4.95546 6.69111C5.01719 6.53717 5.01524 6.36502 4.95004 6.21252C4.88484 6.06002 4.76173 5.93967 4.6078 5.87794C4.45386 5.81621 4.28171 5.81816 4.12921 5.88335L3.20254 6.28086C2.73837 6.48002 2.34421 6.64836 2.03587 6.82252C1.70671 7.00752 1.42421 7.22419 1.21171 7.54586C1.00004 7.86752 0.911707 8.21252 0.871707 8.58752C0.833374 8.94086 0.833374 9.36919 0.833374 9.87502V12.2925C0.833374 12.4583 0.899222 12.6173 1.01643 12.7345C1.13364 12.8517 1.29261 12.9175 1.45837 12.9175C1.62413 12.9175 1.78311 12.8517 1.90032 12.7345C2.01753 12.6173 2.08337 12.4583 2.08337 12.2925V9.90752C2.08337 9.36085 2.08421 9.00086 2.11421 8.72336C2.14254 8.46086 2.19171 8.33169 2.25587 8.23502C2.31837 8.13919 2.41837 8.04252 2.64837 7.91252C2.89171 7.77585 3.22254 7.63336 3.72504 7.41836L4.62087 7.03335Z" fill="#5D7186"/>
<path opacity="0.5" d="M4.16663 9.38184L8.15246 11.2502C8.7298 11.5242 9.36088 11.6664 9.99996 11.6664C10.639 11.6664 11.2701 11.5242 11.8475 11.2502L15.8333 9.38184V13.8543C15.8333 14.6943 15.4141 15.481 14.6791 15.8877C13.455 16.5668 11.4966 17.5002 9.99996 17.5002C8.50329 17.5002 6.54496 16.566 5.32079 15.8877C4.58663 15.481 4.16663 14.6943 4.16663 13.8543V9.38184Z" fill="#5D7186"/>
</svg>
